<svg width="17" height="20" viewBox="0 0 17 20" fill="none" xmlns="http://www.w3.org/2000/svg">
<g clip-path="url(#clip0)">
<path fill-rule="evenodd" clip-rule="evenodd" d="M2 2C0.895431 2 0 2.89543 0 4V18C0 19.1046 0.895431 20 2 20H15C16.1046 20 17 19.1046 17 18V4C17 2.89543 16.1046 2 15 2H2ZM4.2 5C3.53726 5 3 5.53726 3 6.2C3 6.86274 3.53726 7.4 4.2 7.4H12.8C13.4627 7.4 14 6.86274 14 6.2C14 5.53726 13.4627 5 12.8 5H4.2ZM4.2 9.79985C3.53726 9.79985 3 10.3371 3 10.9999C3 11.6626 3.53726 12.1999 4.2 12.1999H12.8C13.4627 12.1999 14 11.6626 14 10.9999C14 10.3371 13.4627 9.79985 12.8 9.79985H4.2ZM3 15.8C3 15.1372 3.53726 14.6 4.2 14.6H12.8C13.4627 14.6 14 15.1372 14 15.8C14 16.4627 13.4627 17 12.8 17H4.2C3.53726 17 3 16.4627 3 15.8Z" fill="#757575"/>
<path d="M4 2C4 0.895431 4.89543 0 6 0H11C12.1046 0 13 0.895431 13 2V3H4V2Z" fill="#757575"/>
</g>
<defs>
<clipPath id="clip0">
<rect width="17" height="20" fill="white"/>
</clipPath>
</defs>
</svg>
