<svg width="32" height="32" viewBox="0 0 32 32" fill="none" xmlns="http://www.w3.org/2000/svg">
<path d="M18.3477 15.9972L25.5075 8.85406C25.821 8.54052 25.9972 8.11528 25.9972 7.67187C25.9972 7.22846 25.821 6.80322 25.5075 6.48968C25.1939 6.17614 24.7687 6 24.3253 6C23.8819 6 23.4566 6.17614 23.1431 6.48968L16 13.6494L8.8569 6.48968C8.54337 6.17614 8.11812 6 7.67471 6C7.2313 6 6.80606 6.17614 6.49252 6.48968C6.17898 6.80322 6.00284 7.22846 6.00284 7.67187C6.00284 8.11528 6.17898 8.54052 6.49252 8.85406L13.6523 15.9972L6.49252 23.1403C6.33646 23.295 6.21259 23.4792 6.12805 23.6821C6.04352 23.885 6 24.1026 6 24.3224C6 24.5423 6.04352 24.7599 6.12805 24.9628C6.21259 25.1657 6.33646 25.3498 6.49252 25.5046C6.64731 25.6607 6.83147 25.7846 7.03437 25.8691C7.23727 25.9536 7.4549 25.9972 7.67471 25.9972C7.89452 25.9972 8.11215 25.9536 8.31505 25.8691C8.51796 25.7846 8.70211 25.6607 8.8569 25.5046L16 18.3449L23.1431 25.5046C23.2979 25.6607 23.482 25.7846 23.6849 25.8691C23.8878 25.9536 24.1055 25.9972 24.3253 25.9972C24.5451 25.9972 24.7627 25.9536 24.9656 25.8691C25.1685 25.7846 25.3527 25.6607 25.5075 25.5046C25.6635 25.3498 25.7874 25.1657 25.8719 24.9628C25.9565 24.7599 26 24.5423 26 24.3224C26 24.1026 25.9565 23.885 25.8719 23.6821C25.7874 23.4792 25.6635 23.295 25.5075 23.1403L18.3477 15.9972Z" fill="#707070"/>
</svg>
