<svg width="25" height="25" viewBox="0 0 25 25" fill="none" xmlns="http://www.w3.org/2000/svg">
<path d="M12.5 1.5625C13.3577 1.56238 14.1844 1.88288 14.8179 2.46107C15.4513 3.03927 15.8458 3.83339 15.9238 4.6875H21.25C21.4875 4.68757 21.7162 4.77781 21.8897 4.93997C22.0633 5.10213 22.1688 5.32412 22.185 5.5611C22.2012 5.79808 22.1269 6.03237 21.977 6.21662C21.8271 6.40088 21.6128 6.52137 21.3775 6.55375L21.25 6.5625H20.5212L18.9375 20.2875C18.867 20.8967 18.5749 21.4588 18.117 21.8668C17.659 22.2747 17.0671 22.5001 16.4538 22.5H8.54625C7.93293 22.5001 7.34099 22.2747 6.88302 21.8668C6.42506 21.4588 6.13303 20.8967 6.0625 20.2875L4.4775 6.5625H3.75C3.52345 6.56249 3.30457 6.48045 3.13384 6.33154C2.9631 6.18264 2.85206 5.97694 2.82125 5.7525L2.8125 5.625C2.81251 5.39845 2.89455 5.17957 3.04346 5.00884C3.19236 4.8381 3.39806 4.72706 3.6225 4.69625L3.75 4.6875H9.07625C9.15422 3.83339 9.54866 3.03927 10.1821 2.46107C10.8156 1.88288 11.6423 1.56238 12.5 1.5625V1.5625ZM10.625 9.375C10.3187 9.375 10.0625 9.56875 10.01 9.82375L10 9.9225V17.5787L10.01 17.6762C10.0625 17.9312 10.3187 18.125 10.625 18.125C10.9313 18.125 11.1875 17.9312 11.24 17.6762L11.25 17.5775V9.92375L11.24 9.82375C11.1875 9.57 10.9313 9.375 10.625 9.375ZM14.375 9.375C14.0687 9.375 13.8125 9.56875 13.76 9.82375L13.75 9.9225V17.5787L13.76 17.6762C13.8125 17.9312 14.0687 18.125 14.375 18.125C14.6813 18.125 14.9375 17.9312 14.99 17.6762L15 17.5775V9.92375L14.99 9.82375C14.9375 9.57 14.6813 9.37625 14.375 9.37625V9.375ZM12.5 3.4375C11.7437 3.4375 11.1125 3.975 10.9687 4.6875H14.0313C13.8863 3.975 13.2563 3.4375 12.5 3.4375V3.4375Z" fill="#707070"/>
</svg>
