<svg width="700" height="686" viewBox="0 0 700 686" fill="none" xmlns="http://www.w3.org/2000/svg">
<path d="M100 140.623V98C104.355 119.776 111.364 140.935 120.871 161.004L121.311 161.934L126.186 169.942C138.211 189.698 152.031 208.304 167.47 225.525C180.394 239.94 194.411 253.338 209.395 265.598L222.951 276.689L265.574 302.918L329.508 332.426L344.559 337.586C372.717 347.241 401.701 354.293 431.148 358.656L438.971 359.815C463.231 363.409 487.722 365.213 512.246 365.213H524.59L559.734 361.079C573.427 359.468 586.92 356.458 600 352.098V389.803V395.568C600 409.19 598.919 422.79 596.767 436.241C594.554 450.068 591.217 463.692 586.789 476.977L585.246 481.607H542.623L472.131 475.049L431.124 465.652C406.041 459.904 381.442 452.216 357.55 442.659C332.34 432.575 308 420.443 284.772 406.384L257.377 389.803L232.602 371.222C209.852 354.159 189.165 334.506 170.959 312.659L167.582 308.607C155.341 293.917 144.486 278.124 135.158 261.432L129.884 251.994C122.008 237.901 115.751 222.963 111.231 207.465C108.12 196.8 105.843 185.908 104.422 174.89L100 140.623Z" fill="#1976D2"/>
<path d="M570.492 517.672L522.951 588.164L491.437 583.817C480.769 582.346 470.239 580.016 459.947 576.849L432.787 568.492L377.049 550.459L325.251 525.793C313.907 520.391 303.097 513.932 292.965 506.502L246.76 472.619C238.549 466.598 230.811 459.958 223.611 452.759L191.803 420.951L168.688 396.785C160.073 387.779 152.251 377.882 145.459 367.432C138.171 356.221 131.953 344.193 127.043 331.755L109.836 288.164L124.224 310.226C131.011 320.632 138.752 330.383 147.348 339.353L172.131 365.213L202.017 392.886C211.579 401.739 221.982 409.636 233.079 416.465L280.328 445.541L337.705 473.41L404.918 496.361L462.295 507.836L507.048 515.093C517.633 516.81 528.339 517.672 539.062 517.672H570.492Z" fill="#00B0FF"/>
</svg>
