<svg width="500" height="490" viewBox="0 0 500 490" fill="none" xmlns="http://www.w3.org/2000/svg">
<g clip-path="url(#clip0)">
<path d="M0 42.623V0C4.35515 21.7757 11.3645 42.9352 20.871 63.0045L21.3115 63.9344L26.1859 71.9424C38.2113 91.6984 52.031 110.304 67.4701 127.525C80.3943 141.94 94.4109 155.338 109.395 167.598L122.951 178.689L165.574 204.918L229.508 234.426L244.559 239.586C272.717 249.241 301.701 256.293 331.148 260.656L338.971 261.815C363.231 265.409 387.722 267.213 412.246 267.213H424.59L459.734 263.079C473.427 261.468 486.92 258.458 500 254.098V291.803V297.568C500 311.19 498.919 324.79 496.767 338.241C494.554 352.068 491.217 365.692 486.789 378.977L485.246 383.607H442.623L372.131 377.049L331.124 367.652C306.041 361.904 281.442 354.216 257.55 344.659C232.34 334.575 208 322.443 184.772 308.384L157.377 291.803L132.602 273.222C109.852 256.159 89.165 236.506 70.9593 214.659L67.5824 210.607C55.3407 195.917 44.4862 180.124 35.158 163.432L29.8838 153.994C22.0084 139.901 15.7509 124.963 11.2305 109.465C8.1198 98.7995 5.84328 87.9084 4.42156 76.8901L0 42.623Z" fill="#1976D2"/>
<path d="M470.492 419.672L422.951 490.164L391.437 485.817C380.769 484.346 370.239 482.016 359.947 478.849L332.787 470.492L277.049 452.459L225.251 427.793C213.907 422.391 203.097 415.932 192.965 408.502L146.76 374.619C138.549 368.598 130.811 361.958 123.611 354.759L91.8033 322.951L68.6877 298.785C60.0732 289.779 52.2509 279.882 45.4588 269.432C38.1712 258.221 31.9528 246.193 27.043 233.755L9.83606 190.164L24.224 212.226C31.0107 222.632 38.7523 232.383 47.3484 241.353L72.1311 267.213L102.017 294.886C111.579 303.739 121.982 311.636 133.079 318.465L180.328 347.541L237.705 375.41L304.918 398.361L362.295 409.836L407.048 417.093C417.633 418.81 428.339 419.672 439.062 419.672H470.492Z" fill="#00B0FF"/>
</g>
<defs>
<clipPath id="clip0">
<rect width="500" height="490" fill="white"/>
</clipPath>
</defs>
</svg>
